<?xml version="1.0" encoding="utf-8"?>
<!-- Generator: Adobe Illustrator 19.2.1, SVG Export Plug-In . SVG Version: 6.00 Build 0)  -->
<svg width="100px" height="50px"
	version="1.1" id="layer" xmlns="http://www.w3.org/2000/svg" xmlns:xlink="http://www.w3.org/1999/xlink" x="0px" y="0px"
	 viewBox="100 200 200 200" xml:space="preserve">
<style type="text/css">
	.st0{fill:#CA101A;}
</style>
<polygon class="st0" points="76.2,287.9 76.2,368.2 51.1,368.2 51.1,287.9 21.8,287.9 21.8,267 105.5,267 105.5,287.9 "/>
<path class="st0" d="M201.1,346.7c-2.1,5-5.1,9.3-9,12.9c-3.9,3.6-8.6,6.4-14.2,8.4c-5.5,2-11.7,3-18.4,3c-6.8,0-13-1-18.5-3
	c-5.5-2-10.1-4.8-13.9-8.4c-3.8-3.6-6.7-7.9-8.8-12.9c-2.1-5-3.1-10.6-3.1-16.7v-63h24.9v61c0,2.8,0.4,5.4,1.1,7.9
	c0.7,2.5,1.9,4.7,3.4,6.6c1.5,2,3.5,3.5,6,4.6c2.5,1.1,5.5,1.7,9,1.7c3.5,0,6.5-0.6,9-1.7c2.5-1.1,4.5-2.7,6.1-4.6
	c1.6-2,2.7-4.2,3.4-6.6c0.7-2.5,1-5.1,1-7.9v-61h25.1v63C204.2,336.2,203.2,341.7,201.1,346.7"/>
<polygon class="st0" points="219.7,383.8 270.6,259.2 252.4,259.2 201.6,383.8 "/>
<path class="st0" d="M295.3,295.2c-20.9,0-37.9,17-37.9,37.9c0,20.9,17,37.9,37.9,37.9c13.4,0,27.1-5.9,34.6-16.5l-17.2-7
	c-4.6,5.1-10.8,7.1-17.4,7.1c-9.6,0-17.8-6.3-20.5-15.1h57.8c0.4-2.1,0.6-4.2,0.6-6.4C333.2,312.1,316.2,295.2,295.3,295.2
	 M295.3,311.5c9,0,16.7,5.5,19.9,13.3h-39.8C278.6,317.1,286.3,311.5,295.3,311.5"/>
</svg>
